<?xml version="1.0" standalone="no"?>
<!DOCTYPE svg PUBLIC "-//W3C//DTD SVG 20010904//EN"
 "http://www.w3.org/TR/2001/REC-SVG-20010904/DTD/svg10.dtd">
<svg version="1.0" xmlns="http://www.w3.org/2000/svg"
 width="260.000000pt" height="260.000000pt" viewBox="0 0 260.000000 260.000000"
 preserveAspectRatio="xMidYMid meet">
<metadata>
Created by Brandon Lambert Portfolio
</metadata>
<g transform="translate(0.000000,260.000000) scale(0.100000,-0.100000)"
fill="#1e293b" stroke="none">
<path d="M1140 2384 c-19 -2 -78 -9 -130 -14 -314 -32 -646 -179 -885 -391
-239 -213 -395 -494 -445 -804 -13 -82 -13 -268 0 -350 50 -310 206 -591 445
-804 239 -212 571 -359 885 -391 82 -8 268 -8 350 0 314 32 646 179 885 391
239 213 395 494 445 804 13 82 13 268 0 350 -50 310 -206 591 -445 804 -213
190 -478 320 -760 373 -88 16 -257 26 -345 20z m285 -199 c280 -46 533 -172
735 -367 202 -195 328 -448 374 -748 14 -90 14 -260 0 -350 -46 -300 -172
-553 -374 -748 -195 -189 -448 -315 -735 -367 -90 -16 -260 -16 -350 0 -287
52 -540 178 -735 367 -202 195 -328 448 -374 748 -14 90 -14 260 0 350 46
300 172 553 374 748 195 189 448 315 735 367 90 16 260 16 350 0z"/>
<path d="M1205 1954 c-77 -16 -145 -47 -145 -65 0 -4 9 -25 20 -47 11 -22 20
-42 20 -45 0 -3 -22 -15 -50 -27 -72 -31 -151 -97 -195 -163 -50 -75 -75
-147 -75 -217 0 -70 25 -142 75 -217 44 -66 123 -132 195 -163 28 -12 50 -24
50 -27 0 -3 -9 -23 -20 -45 -11 -22 -20 -43 -20 -47 0 -18 68 -49 145 -65
77 -16 203 -16 280 0 77 16 145 47 145 65 0 4 -9 25 -20 47 -11 22 -20 42
-20 45 0 3 22 15 50 27 72 31 151 97 195 163 50 75 75 147 75 217 0 70 -25
142 -75 217 -44 66 -123 132 -195 163 -28 12 -50 24 -50 27 0 3 9 23 20 45
11 22 20 43 20 47 0 18 -68 49 -145 65 -77 16 -203 16 -280 0z m255 -89 c30
-6 57 -13 60 -16 3 -3 -4 -22 -15 -42 l-20 -37 -185 0 -185 0 -20 37 c-11
20 -18 39 -15 42 8 8 112 25 155 25 22 0 69 -4 125 -9z m-355 -185 c0 -5 -4
-10 -10 -10 -5 0 -10 5 -10 10 0 6 5 10 10 10 6 0 10 -4 10 -10z m590 0 c0
-5 -4 -10 -10 -10 -5 0 -10 5 -10 10 0 6 5 10 10 10 6 0 10 -4 10 -10z m-295
-70 c69 0 125 -4 125 -10 0 -5 -56 -10 -125 -10 -69 0 -125 5 -125 10 0 6 56
10 125 10z m-215 -60 c0 -5 -4 -10 -10 -10 -5 0 -10 5 -10 10 0 6 5 10 10 10
6 0 10 -4 10 -10z m430 0 c0 -5 -4 -10 -10 -10 -5 0 -10 5 -10 10 0 6 5 10
10 10 6 0 10 -4 10 -10z m-215 -70 c69 0 125 -4 125 -10 0 -5 -56 -10 -125
-10 -69 0 -125 5 -125 10 0 6 56 10 125 10z m-135 -60 c0 -5 -4 -10 -10 -10
-5 0 -10 5 -10 10 0 6 5 10 10 10 6 0 10 -4 10 -10z m270 0 c0 -5 -4 -10 -10
-10 -5 0 -10 5 -10 10 0 6 5 10 10 10 6 0 10 -4 10 -10z m-135 -70 c69 0 125
-4 125 -10 0 -5 -56 -10 -125 -10 -69 0 -125 5 -125 10 0 6 56 10 125 10z"/>
</g>
</svg>